<mxfile host="Electron" modified="2024-12-18T16:10:03.758Z" agent="Mozilla/5.0 (Windows NT 10.0; Win64; x64) AppleWebKit/537.36 (KHTML, like Gecko) draw.io/22.1.18 Chrome/120.0.6099.199 Electron/28.1.2 Safari/537.36" etag="rs3Ezw7qHa695lPsTc0A" version="22.1.18" type="device">
  <diagram name="PÃ¡gina-1" id="zkytvFeRzGY3eKBHKxYV">
    <mxGraphModel dx="1509" dy="899" grid="1" gridSize="10" guides="1" tooltips="1" connect="1" arrows="1" fold="1" page="1" pageScale="1" pageWidth="827" pageHeight="1169" math="0" shadow="0">
      <root>
        <mxCell id="0" />
        <mxCell id="1" parent="0" />
        <mxCell id="l7OrtL1ebxME331zPhpN-7" value="External Devices" style="html=1;dashed=0;whiteSpace=wrap;" vertex="1" parent="1">
          <mxGeometry x="555" y="430" width="200" height="50" as="geometry" />
        </mxCell>
        <mxCell id="l7OrtL1ebxME331zPhpN-31" style="edgeStyle=orthogonalEdgeStyle;rounded=0;orthogonalLoop=1;jettySize=auto;html=1;elbow=horizontal;startArrow=block;startFill=1;" edge="1" parent="1" source="l7OrtL1ebxME331zPhpN-11" target="l7OrtL1ebxME331zPhpN-12">
          <mxGeometry relative="1" as="geometry">
            <Array as="points">
              <mxPoint x="410" y="145" />
              <mxPoint x="410" y="145" />
            </Array>
          </mxGeometry>
        </mxCell>
        <mxCell id="l7OrtL1ebxME331zPhpN-32" value="HTTPS" style="edgeLabel;html=1;align=center;verticalAlign=middle;resizable=0;points=[];" vertex="1" connectable="0" parent="l7OrtL1ebxME331zPhpN-31">
          <mxGeometry x="-0.5448" y="-2" relative="1" as="geometry">
            <mxPoint x="19" y="3" as="offset" />
          </mxGeometry>
        </mxCell>
        <mxCell id="l7OrtL1ebxME331zPhpN-11" value="Backend" style="verticalAlign=top;align=left;spacingTop=8;spacingLeft=2;spacingRight=12;shape=cube;size=10;direction=south;fontStyle=4;html=1;whiteSpace=wrap;" vertex="1" parent="1">
          <mxGeometry x="20" y="40" width="370" height="250" as="geometry" />
        </mxCell>
        <mxCell id="l7OrtL1ebxME331zPhpN-21" style="edgeStyle=orthogonalEdgeStyle;rounded=0;orthogonalLoop=1;jettySize=auto;html=1;entryX=0.5;entryY=0;entryDx=0;entryDy=0;startArrow=block;startFill=1;" edge="1" parent="1" source="l7OrtL1ebxME331zPhpN-12" target="l7OrtL1ebxME331zPhpN-7">
          <mxGeometry relative="1" as="geometry" />
        </mxCell>
        <mxCell id="l7OrtL1ebxME331zPhpN-12" value="Frontend" style="verticalAlign=top;align=left;spacingTop=8;spacingLeft=2;spacingRight=12;shape=cube;size=10;direction=south;fontStyle=4;html=1;whiteSpace=wrap;" vertex="1" parent="1">
          <mxGeometry x="480" y="40" width="350" height="210" as="geometry" />
        </mxCell>
        <mxCell id="l7OrtL1ebxME331zPhpN-13" value="Database" style="verticalAlign=top;align=left;spacingTop=8;spacingLeft=2;spacingRight=12;shape=cube;size=10;direction=south;fontStyle=4;html=1;whiteSpace=wrap;" vertex="1" parent="1">
          <mxGeometry x="40" y="400" width="340" height="240" as="geometry" />
        </mxCell>
        <mxCell id="l7OrtL1ebxME331zPhpN-17" style="edgeStyle=orthogonalEdgeStyle;rounded=0;orthogonalLoop=1;jettySize=auto;html=1;dashed=1;" edge="1" parent="1" target="l7OrtL1ebxME331zPhpN-15">
          <mxGeometry relative="1" as="geometry">
            <mxPoint x="600" y="115" as="sourcePoint" />
          </mxGeometry>
        </mxCell>
        <mxCell id="l7OrtL1ebxME331zPhpN-19" style="edgeStyle=orthogonalEdgeStyle;rounded=0;orthogonalLoop=1;jettySize=auto;html=1;entryX=0;entryY=0.5;entryDx=0;entryDy=0;dashed=1;" edge="1" parent="1" source="l7OrtL1ebxME331zPhpN-14" target="l7OrtL1ebxME331zPhpN-16">
          <mxGeometry relative="1" as="geometry" />
        </mxCell>
        <mxCell id="l7OrtL1ebxME331zPhpN-14" value="React" style="shape=module;align=left;spacingLeft=20;align=center;verticalAlign=top;whiteSpace=wrap;html=1;" vertex="1" parent="1">
          <mxGeometry x="500" y="90" width="100" height="50" as="geometry" />
        </mxCell>
        <mxCell id="l7OrtL1ebxME331zPhpN-15" value="User UI" style="html=1;whiteSpace=wrap;" vertex="1" parent="1">
          <mxGeometry x="650" y="90" width="110" height="50" as="geometry" />
        </mxCell>
        <mxCell id="l7OrtL1ebxME331zPhpN-16" value="Admin UI" style="html=1;whiteSpace=wrap;" vertex="1" parent="1">
          <mxGeometry x="650" y="160" width="110" height="50" as="geometry" />
        </mxCell>
        <mxCell id="l7OrtL1ebxME331zPhpN-28" style="edgeStyle=orthogonalEdgeStyle;rounded=0;orthogonalLoop=1;jettySize=auto;html=1;dashed=1;" edge="1" parent="1" source="l7OrtL1ebxME331zPhpN-24" target="l7OrtL1ebxME331zPhpN-25">
          <mxGeometry relative="1" as="geometry" />
        </mxCell>
        <mxCell id="l7OrtL1ebxME331zPhpN-29" style="edgeStyle=orthogonalEdgeStyle;rounded=0;orthogonalLoop=1;jettySize=auto;html=1;entryX=0;entryY=0.5;entryDx=0;entryDy=0;dashed=1;" edge="1" parent="1" source="l7OrtL1ebxME331zPhpN-24" target="l7OrtL1ebxME331zPhpN-26">
          <mxGeometry relative="1" as="geometry" />
        </mxCell>
        <mxCell id="l7OrtL1ebxME331zPhpN-30" style="edgeStyle=orthogonalEdgeStyle;rounded=0;orthogonalLoop=1;jettySize=auto;html=1;entryX=0;entryY=0.5;entryDx=0;entryDy=0;dashed=1;" edge="1" parent="1" source="l7OrtL1ebxME331zPhpN-24" target="l7OrtL1ebxME331zPhpN-27">
          <mxGeometry relative="1" as="geometry" />
        </mxCell>
        <mxCell id="l7OrtL1ebxME331zPhpN-24" value="NodeJs" style="shape=module;align=left;spacingLeft=20;align=center;verticalAlign=top;whiteSpace=wrap;html=1;" vertex="1" parent="1">
          <mxGeometry x="40" y="90" width="100" height="50" as="geometry" />
        </mxCell>
        <mxCell id="l7OrtL1ebxME331zPhpN-25" value="Server API" style="html=1;whiteSpace=wrap;" vertex="1" parent="1">
          <mxGeometry x="240" y="90" width="110" height="50" as="geometry" />
        </mxCell>
        <mxCell id="l7OrtL1ebxME331zPhpN-26" value="Analisys Module" style="html=1;whiteSpace=wrap;" vertex="1" parent="1">
          <mxGeometry x="240" y="150" width="110" height="50" as="geometry" />
        </mxCell>
        <mxCell id="l7OrtL1ebxME331zPhpN-27" value="Communication Module" style="html=1;whiteSpace=wrap;" vertex="1" parent="1">
          <mxGeometry x="240" y="210" width="110" height="50" as="geometry" />
        </mxCell>
        <mxCell id="l7OrtL1ebxME331zPhpN-36" style="edgeStyle=orthogonalEdgeStyle;rounded=0;orthogonalLoop=1;jettySize=auto;html=1;dashed=1;" edge="1" parent="1" source="l7OrtL1ebxME331zPhpN-33" target="l7OrtL1ebxME331zPhpN-34">
          <mxGeometry relative="1" as="geometry" />
        </mxCell>
        <mxCell id="l7OrtL1ebxME331zPhpN-37" style="edgeStyle=orthogonalEdgeStyle;rounded=0;orthogonalLoop=1;jettySize=auto;html=1;entryX=0;entryY=0.5;entryDx=0;entryDy=0;dashed=1;" edge="1" parent="1" source="l7OrtL1ebxME331zPhpN-33" target="l7OrtL1ebxME331zPhpN-35">
          <mxGeometry relative="1" as="geometry" />
        </mxCell>
        <mxCell id="l7OrtL1ebxME331zPhpN-33" value="MySQL" style="shape=module;align=left;spacingLeft=20;align=center;verticalAlign=top;whiteSpace=wrap;html=1;" vertex="1" parent="1">
          <mxGeometry x="60" y="450" width="100" height="50" as="geometry" />
        </mxCell>
        <mxCell id="l7OrtL1ebxME331zPhpN-34" value="User Data&lt;br&gt;Storage" style="html=1;whiteSpace=wrap;" vertex="1" parent="1">
          <mxGeometry x="220" y="450" width="110" height="50" as="geometry" />
        </mxCell>
        <mxCell id="l7OrtL1ebxME331zPhpN-35" value="Parks Data&lt;br&gt;Storage" style="html=1;whiteSpace=wrap;" vertex="1" parent="1">
          <mxGeometry x="220" y="520" width="110" height="50" as="geometry" />
        </mxCell>
        <mxCell id="l7OrtL1ebxME331zPhpN-38" style="edgeStyle=orthogonalEdgeStyle;rounded=0;orthogonalLoop=1;jettySize=auto;html=1;entryX=0.004;entryY=0.51;entryDx=0;entryDy=0;entryPerimeter=0;startArrow=block;startFill=1;" edge="1" parent="1" source="l7OrtL1ebxME331zPhpN-11" target="l7OrtL1ebxME331zPhpN-13">
          <mxGeometry relative="1" as="geometry" />
        </mxCell>
        <mxCell id="l7OrtL1ebxME331zPhpN-39" value="HTTPS" style="edgeLabel;html=1;align=center;verticalAlign=middle;resizable=0;points=[];" vertex="1" connectable="0" parent="l7OrtL1ebxME331zPhpN-38">
          <mxGeometry x="-0.1051" y="-1" relative="1" as="geometry">
            <mxPoint as="offset" />
          </mxGeometry>
        </mxCell>
      </root>
    </mxGraphModel>
  </diagram>
</mxfile>
